<svg xmlns="http://www.w3.org/2000/svg" width="56.889" height="50" viewBox="0 0 56.889 50">
  <g id="Group_2" data-name="Group 2" transform="translate(-1186 -293)">
    <g id="_006-shopping-cart" data-name="006-shopping-cart" transform="translate(1186 293)">
      <path id="Path_3" data-name="Path 3" d="M18.329,33.334H48.556a1.667,1.667,0,0,0,1.6-1.209L56.825,8.791a1.667,1.667,0,0,0-1.6-2.125H14.485L13.294,1.305A1.667,1.667,0,0,0,11.667,0h-10a1.667,1.667,0,0,0,0,3.333H10.33l6.017,27.079A5,5,0,0,0,18.333,40H48.556a1.667,1.667,0,0,0,0-3.333H18.333a1.666,1.666,0,0,1,0-3.333ZM53.013,10,47.3,30H19.67L15.226,10Zm0,0" fill="#8e1313"/>
      <path id="Path_4" data-name="Path 4" d="M150,365a5,5,0,1,0,5-5A5.006,5.006,0,0,0,150,365Zm5-1.667A1.667,1.667,0,1,1,153.333,365,1.669,1.669,0,0,1,155,363.333Zm0,0" transform="translate(-133.333 -320)" fill="#8e1313"/>
      <path id="Path_5" data-name="Path 5" d="M362,365a5,5,0,1,0,5-5A5.006,5.006,0,0,0,362,365Zm5-1.667A1.667,1.667,0,1,1,365.333,365,1.669,1.669,0,0,1,367,363.333Zm0,0" transform="translate(-321.778 -320)" fill="#8e1313"/>
    </g>
  </g>
</svg>
